<mxfile host="Electron" modified="2024-01-10T17:52:38.981Z" agent="Mozilla/5.0 (Windows NT 10.0; Win64; x64) AppleWebKit/537.36 (KHTML, like Gecko) draw.io/22.1.16 Chrome/120.0.6099.109 Electron/28.1.0 Safari/537.36" etag="F7WyHsb-XMuE8DOL872a" version="22.1.16" type="device">
  <diagram name="Page-1" id="eclO4F_mNsO8wKzWAaiN">
    <mxGraphModel dx="1567" dy="656" grid="1" gridSize="10" guides="1" tooltips="1" connect="1" arrows="1" fold="1" page="1" pageScale="1" pageWidth="3300" pageHeight="2339" math="0" shadow="0">
      <root>
        <mxCell id="0" />
        <mxCell id="1" parent="0" />
        <mxCell id="R6HQGe3N8mK7y5_B-h03-1" value="Gestion d&#39;une cite universitaire" style="swimlane;whiteSpace=wrap;html=1;rounded=1;" parent="1" vertex="1">
          <mxGeometry x="400" y="110" width="670" height="630" as="geometry" />
        </mxCell>
        <mxCell id="ziBAMtjJagUlrh0dRkAp-22" style="rounded=1;orthogonalLoop=1;jettySize=auto;html=1;dashed=1;" parent="R6HQGe3N8mK7y5_B-h03-1" source="R6HQGe3N8mK7y5_B-h03-14" target="ziBAMtjJagUlrh0dRkAp-19" edge="1">
          <mxGeometry relative="1" as="geometry" />
        </mxCell>
        <mxCell id="ziBAMtjJagUlrh0dRkAp-26" value="&amp;lt;&amp;lt;Include&amp;gt;&amp;gt;" style="edgeLabel;html=1;align=center;verticalAlign=middle;resizable=0;points=[];rounded=1;" parent="ziBAMtjJagUlrh0dRkAp-22" vertex="1" connectable="0">
          <mxGeometry x="0.3594" relative="1" as="geometry">
            <mxPoint as="offset" />
          </mxGeometry>
        </mxCell>
        <mxCell id="R6HQGe3N8mK7y5_B-h03-14" value="Enregistrer Batiment" style="ellipse;whiteSpace=wrap;html=1;rounded=1;" parent="R6HQGe3N8mK7y5_B-h03-1" vertex="1">
          <mxGeometry x="90" y="400" width="130" height="60" as="geometry" />
        </mxCell>
        <mxCell id="R6HQGe3N8mK7y5_B-h03-20" style="rounded=1;orthogonalLoop=1;jettySize=auto;html=1;entryX=0.5;entryY=1;entryDx=0;entryDy=0;dashed=1;" parent="R6HQGe3N8mK7y5_B-h03-1" source="R6HQGe3N8mK7y5_B-h03-17" target="R6HQGe3N8mK7y5_B-h03-14" edge="1">
          <mxGeometry relative="1" as="geometry" />
        </mxCell>
        <mxCell id="ziBAMtjJagUlrh0dRkAp-18" value="&amp;lt;Extends&amp;gt;" style="edgeLabel;html=1;align=center;verticalAlign=middle;resizable=0;points=[];rounded=1;" parent="R6HQGe3N8mK7y5_B-h03-20" vertex="1" connectable="0">
          <mxGeometry x="-0.2566" y="1" relative="1" as="geometry">
            <mxPoint y="1" as="offset" />
          </mxGeometry>
        </mxCell>
        <mxCell id="R6HQGe3N8mK7y5_B-h03-17" value="Enregistrer Chambre" style="ellipse;whiteSpace=wrap;html=1;rounded=1;" parent="R6HQGe3N8mK7y5_B-h03-1" vertex="1">
          <mxGeometry x="220" y="550" width="130" height="60" as="geometry" />
        </mxCell>
        <mxCell id="ziBAMtjJagUlrh0dRkAp-2" value="Attribuer Chambre" style="ellipse;whiteSpace=wrap;html=1;rounded=1;" parent="R6HQGe3N8mK7y5_B-h03-1" vertex="1">
          <mxGeometry x="40" y="140" width="130" height="60" as="geometry" />
        </mxCell>
        <mxCell id="ziBAMtjJagUlrh0dRkAp-8" style="rounded=1;orthogonalLoop=1;jettySize=auto;html=1;dashed=1;" parent="R6HQGe3N8mK7y5_B-h03-1" source="ziBAMtjJagUlrh0dRkAp-2" target="0oGUQ95M2D2VILMavhU--1" edge="1">
          <mxGeometry relative="1" as="geometry">
            <mxPoint x="208.97000000000003" y="102.98000000000002" as="targetPoint" />
          </mxGeometry>
        </mxCell>
        <mxCell id="ziBAMtjJagUlrh0dRkAp-29" value="&amp;lt;&amp;lt;Include&amp;gt;&amp;gt;" style="edgeLabel;html=1;align=center;verticalAlign=middle;resizable=0;points=[];rounded=1;" parent="ziBAMtjJagUlrh0dRkAp-8" vertex="1" connectable="0">
          <mxGeometry x="-0.0046" y="-2" relative="1" as="geometry">
            <mxPoint as="offset" />
          </mxGeometry>
        </mxCell>
        <mxCell id="ziBAMtjJagUlrh0dRkAp-11" value="Batiment" style="ellipse;whiteSpace=wrap;html=1;rounded=1;" parent="R6HQGe3N8mK7y5_B-h03-1" vertex="1">
          <mxGeometry x="500" y="330" width="130" height="60" as="geometry" />
        </mxCell>
        <mxCell id="ziBAMtjJagUlrh0dRkAp-12" value="Chambre" style="ellipse;whiteSpace=wrap;html=1;rounded=1;" parent="R6HQGe3N8mK7y5_B-h03-1" vertex="1">
          <mxGeometry x="480" y="420" width="130" height="60" as="geometry" />
        </mxCell>
        <mxCell id="ziBAMtjJagUlrh0dRkAp-13" value="Paiement" style="ellipse;whiteSpace=wrap;html=1;rounded=1;" parent="R6HQGe3N8mK7y5_B-h03-1" vertex="1">
          <mxGeometry x="360" y="500" width="130" height="60" as="geometry" />
        </mxCell>
        <mxCell id="ziBAMtjJagUlrh0dRkAp-19" value="S&#39;authentifier" style="ellipse;whiteSpace=wrap;html=1;rounded=1;" parent="R6HQGe3N8mK7y5_B-h03-1" vertex="1">
          <mxGeometry x="500" y="200" width="130" height="60" as="geometry" />
        </mxCell>
        <mxCell id="ziBAMtjJagUlrh0dRkAp-20" style="rounded=1;orthogonalLoop=1;jettySize=auto;html=1;entryX=0.038;entryY=0.667;entryDx=0;entryDy=0;entryPerimeter=0;dashed=1;" parent="R6HQGe3N8mK7y5_B-h03-1" source="ziBAMtjJagUlrh0dRkAp-2" target="ziBAMtjJagUlrh0dRkAp-19" edge="1">
          <mxGeometry relative="1" as="geometry" />
        </mxCell>
        <mxCell id="ziBAMtjJagUlrh0dRkAp-24" value="&amp;lt;&amp;lt;Include&amp;gt;&amp;gt;" style="edgeLabel;html=1;align=center;verticalAlign=middle;resizable=0;points=[];rounded=1;" parent="ziBAMtjJagUlrh0dRkAp-20" vertex="1" connectable="0">
          <mxGeometry x="-0.0693" y="-1" relative="1" as="geometry">
            <mxPoint y="1" as="offset" />
          </mxGeometry>
        </mxCell>
        <mxCell id="0oGUQ95M2D2VILMavhU--1" value="Inserer Etudiants" style="ellipse;whiteSpace=wrap;html=1;rounded=1;" vertex="1" parent="R6HQGe3N8mK7y5_B-h03-1">
          <mxGeometry x="320" y="50" width="130" height="60" as="geometry" />
        </mxCell>
        <mxCell id="0oGUQ95M2D2VILMavhU--3" value="Supprimer Etudiant" style="ellipse;whiteSpace=wrap;html=1;rounded=1;" vertex="1" parent="R6HQGe3N8mK7y5_B-h03-1">
          <mxGeometry x="40" y="500" width="130" height="60" as="geometry" />
        </mxCell>
        <mxCell id="R6HQGe3N8mK7y5_B-h03-21" style="rounded=1;orthogonalLoop=1;jettySize=auto;html=1;" parent="1" source="ziBAMtjJagUlrh0dRkAp-10" edge="1">
          <mxGeometry relative="1" as="geometry">
            <mxPoint x="591.5326398789896" y="406.4762612368379" as="targetPoint" />
          </mxGeometry>
        </mxCell>
        <mxCell id="R6HQGe3N8mK7y5_B-h03-22" style="rounded=1;orthogonalLoop=1;jettySize=auto;html=1;endArrow=none;endFill=0;" parent="1" source="R6HQGe3N8mK7y5_B-h03-4" target="R6HQGe3N8mK7y5_B-h03-14" edge="1">
          <mxGeometry relative="1" as="geometry" />
        </mxCell>
        <mxCell id="ziBAMtjJagUlrh0dRkAp-7" style="rounded=1;orthogonalLoop=1;jettySize=auto;html=1;endArrow=none;endFill=0;" parent="1" source="R6HQGe3N8mK7y5_B-h03-4" target="ziBAMtjJagUlrh0dRkAp-2" edge="1">
          <mxGeometry relative="1" as="geometry" />
        </mxCell>
        <mxCell id="0oGUQ95M2D2VILMavhU--5" style="rounded=1;orthogonalLoop=1;jettySize=auto;html=1;entryX=0;entryY=0.5;entryDx=0;entryDy=0;endArrow=none;endFill=0;" edge="1" parent="1" source="R6HQGe3N8mK7y5_B-h03-4" target="0oGUQ95M2D2VILMavhU--3">
          <mxGeometry relative="1" as="geometry" />
        </mxCell>
        <mxCell id="R6HQGe3N8mK7y5_B-h03-4" value="Administrateur" style="shape=umlActor;verticalLabelPosition=bottom;verticalAlign=top;html=1;outlineConnect=0;rounded=1;" parent="1" vertex="1">
          <mxGeometry x="150" y="420" width="30" height="60" as="geometry" />
        </mxCell>
        <mxCell id="ziBAMtjJagUlrh0dRkAp-23" value="" style="rounded=1;orthogonalLoop=1;jettySize=auto;html=1;endArrow=none;endFill=0;" parent="1" source="R6HQGe3N8mK7y5_B-h03-4" target="ziBAMtjJagUlrh0dRkAp-10" edge="1">
          <mxGeometry relative="1" as="geometry">
            <mxPoint x="180" y="448" as="sourcePoint" />
            <mxPoint x="591.5326398789896" y="406.4762612368379" as="targetPoint" />
          </mxGeometry>
        </mxCell>
        <mxCell id="ziBAMtjJagUlrh0dRkAp-10" value="Consulter Etat" style="ellipse;whiteSpace=wrap;html=1;rounded=1;" parent="1" vertex="1">
          <mxGeometry x="520" y="380" width="130" height="60" as="geometry" />
        </mxCell>
        <mxCell id="ziBAMtjJagUlrh0dRkAp-14" style="rounded=1;orthogonalLoop=1;jettySize=auto;html=1;entryX=0.785;entryY=0.017;entryDx=0;entryDy=0;entryPerimeter=0;" parent="1" source="ziBAMtjJagUlrh0dRkAp-11" target="ziBAMtjJagUlrh0dRkAp-10" edge="1">
          <mxGeometry relative="1" as="geometry" />
        </mxCell>
        <mxCell id="ziBAMtjJagUlrh0dRkAp-15" style="rounded=1;orthogonalLoop=1;jettySize=auto;html=1;entryX=0.738;entryY=1.017;entryDx=0;entryDy=0;entryPerimeter=0;" parent="1" source="ziBAMtjJagUlrh0dRkAp-12" target="ziBAMtjJagUlrh0dRkAp-10" edge="1">
          <mxGeometry relative="1" as="geometry" />
        </mxCell>
        <mxCell id="ziBAMtjJagUlrh0dRkAp-16" style="rounded=1;orthogonalLoop=1;jettySize=auto;html=1;entryX=0.331;entryY=1.05;entryDx=0;entryDy=0;entryPerimeter=0;" parent="1" source="ziBAMtjJagUlrh0dRkAp-13" target="ziBAMtjJagUlrh0dRkAp-10" edge="1">
          <mxGeometry relative="1" as="geometry" />
        </mxCell>
        <mxCell id="ziBAMtjJagUlrh0dRkAp-21" style="rounded=1;orthogonalLoop=1;jettySize=auto;html=1;dashed=1;" parent="1" source="ziBAMtjJagUlrh0dRkAp-10" target="ziBAMtjJagUlrh0dRkAp-19" edge="1">
          <mxGeometry relative="1" as="geometry" />
        </mxCell>
        <mxCell id="ziBAMtjJagUlrh0dRkAp-25" value="&amp;lt;&amp;lt;Include&amp;gt;&amp;gt;" style="edgeLabel;html=1;align=center;verticalAlign=middle;resizable=0;points=[];rounded=1;" parent="ziBAMtjJagUlrh0dRkAp-21" vertex="1" connectable="0">
          <mxGeometry x="-0.0096" relative="1" as="geometry">
            <mxPoint as="offset" />
          </mxGeometry>
        </mxCell>
      </root>
    </mxGraphModel>
  </diagram>
</mxfile>
